<svg width="436" height="134" viewBox="0 0 436 134" fill="none" xmlns="http://www.w3.org/2000/svg">
<path d="M291.66 110.355H293.875C294.352 112.285 295.762 118 298.105 127.5H296.266L294.93 121.922H290.664L289.352 127.5H287.5C289.797 118.031 291.184 112.316 291.66 110.355ZM293.488 115.688L293.113 114.012C292.965 113.348 292.848 112.68 292.762 112.008C292.637 112.984 292.484 113.867 292.305 114.656C292.133 115.445 292.004 116.031 291.918 116.414C291.832 116.789 291.684 117.422 291.473 118.313C291.262 119.203 291.113 119.836 291.027 120.211H294.555L293.488 115.688ZM310.915 110.367H313.856C315.552 110.367 316.798 110.766 317.595 111.563C318.399 112.359 318.802 113.574 318.802 115.207C318.802 116.379 318.595 117.344 318.181 118.102C317.774 118.859 317.126 119.434 316.235 119.824L319.599 127.5H317.606L314.571 120.281H312.731V127.5H310.915V110.367ZM312.731 112.031V118.676H314.079C315.024 118.676 315.739 118.391 316.224 117.82C316.708 117.25 316.95 116.398 316.95 115.266C316.95 114.125 316.704 113.301 316.212 112.793C315.72 112.285 314.935 112.031 313.856 112.031H312.731ZM339.768 112.031H336.404V127.5H334.588V112.031H331.213V110.367H339.768V112.031ZM359.503 112.02H354.616V117.715H359.21V119.367H354.616V125.836H359.503V127.5H352.8V110.367H359.503V112.02ZM375.945 126.082C376.726 126.082 377.355 125.801 377.832 125.238C378.316 124.676 378.558 123.992 378.558 123.188C378.558 122.375 378.344 121.699 377.914 121.16C377.484 120.613 376.879 120.102 376.098 119.625C374.855 118.93 373.98 118.223 373.473 117.504C372.973 116.785 372.723 115.793 372.723 114.527C372.723 113.262 373.109 112.211 373.883 111.375C374.664 110.539 375.672 110.121 376.906 110.121C378.14 110.121 379.238 110.402 380.199 110.965C380.051 111.316 379.836 111.844 379.555 112.547C378.648 112.063 377.808 111.82 377.035 111.82C376.269 111.82 375.656 112.078 375.195 112.594C374.742 113.102 374.515 113.762 374.515 114.574C374.515 115.387 374.683 116.035 375.019 116.52C375.355 116.996 376.062 117.535 377.14 118.137C378.281 118.754 379.105 119.441 379.613 120.199C380.121 120.957 380.375 121.871 380.375 122.941C380.375 124.402 379.976 125.566 379.18 126.434C378.39 127.301 377.324 127.734 375.98 127.734C374.637 127.734 373.504 127.508 372.582 127.055V125.18C373.051 125.453 373.59 125.672 374.199 125.836C374.808 126 375.39 126.082 375.945 126.082ZM399.102 108.984C398.837 108.984 398.555 108.91 398.259 108.762C397.962 108.613 397.708 108.453 397.497 108.281C396.927 107.805 396.497 107.566 396.208 107.566C395.716 107.566 395.395 108.047 395.247 109.008H394.122C394.216 108.094 394.442 107.395 394.802 106.91C395.169 106.426 395.657 106.184 396.266 106.184C396.602 106.184 396.954 106.301 397.321 106.535C397.688 106.77 398.032 107.004 398.352 107.238C398.673 107.473 398.954 107.59 399.196 107.59C399.438 107.59 399.626 107.473 399.759 107.238C399.891 107.004 400.001 106.645 400.087 106.16H401.212C401.134 107.074 400.911 107.773 400.544 108.258C400.177 108.742 399.696 108.984 399.102 108.984ZM396.477 110.355H398.692C399.169 112.285 400.579 118 402.923 127.5H401.083L399.747 121.922H395.481L394.169 127.5H392.317C394.614 118.031 396.001 112.316 396.477 110.355ZM398.305 115.688L397.93 114.012C397.782 113.348 397.665 112.68 397.579 112.008C397.454 112.984 397.302 113.867 397.122 114.656C396.95 115.445 396.821 116.031 396.735 116.414C396.649 116.789 396.501 117.422 396.29 118.313C396.079 119.203 395.93 119.836 395.845 120.211H399.372L398.305 115.688ZM420.537 110.121C422.248 110.121 423.56 110.883 424.474 112.406C425.388 113.93 425.845 116.102 425.845 118.922C425.845 121.742 425.385 123.918 424.463 125.449C423.549 126.973 422.224 127.734 420.49 127.734C418.756 127.734 417.435 126.973 416.529 125.449C415.623 123.918 415.17 121.73 415.17 118.887C415.17 113.043 416.959 110.121 420.537 110.121ZM420.537 111.785C419.381 111.785 418.51 112.391 417.924 113.602C417.338 114.805 417.045 116.578 417.045 118.922C417.045 121.266 417.338 123.043 417.924 124.254C418.51 125.465 419.369 126.07 420.502 126.07C421.642 126.07 422.506 125.473 423.092 124.277C423.677 123.074 423.97 121.285 423.97 118.91C423.97 114.16 422.826 111.785 420.537 111.785Z" fill="white"/>
<path d="M245.961 112.02H241.074V117.715H245.668V119.367H241.074V125.836H245.961V127.5H239.258V110.367H245.961V112.02Z" fill="white"/>
<path d="M16.9609 112.02H12.0742V118.453H16.6797V120.105H12.0742V127.5H10.2578V110.367H16.9609V112.02ZM35.0791 110.121C36.79 110.121 38.1025 110.883 39.0166 112.406C39.9306 113.93 40.3877 116.102 40.3877 118.922C40.3877 121.742 39.9267 123.918 39.0048 125.449C38.0908 126.973 36.7666 127.734 35.0322 127.734C33.2978 127.734 31.9775 126.973 31.0713 125.449C30.165 123.918 29.7119 121.73 29.7119 118.887C29.7119 113.043 31.5009 110.121 35.0791 110.121ZM35.0791 111.785C33.9228 111.785 33.0517 112.391 32.4658 113.602C31.8798 114.805 31.5869 116.578 31.5869 118.922C31.5869 121.266 31.8798 123.043 32.4658 124.254C33.0517 125.465 33.9111 126.07 35.0439 126.07C36.1845 126.07 37.0478 125.473 37.6338 124.277C38.2197 123.074 38.5127 121.285 38.5127 118.91C38.5127 114.16 37.3681 111.785 35.0791 111.785ZM61.4003 112.031H58.037V127.5H56.2206V112.031H52.8456V110.367H61.4003V112.031ZM82.4833 105.152V105.375C82.2567 105.805 81.7958 106.398 81.1005 107.156C80.413 107.906 79.7802 108.52 79.202 108.996H78.1122V108.738C78.5184 108.199 78.9208 107.598 79.3192 106.934C79.7255 106.262 80.0458 105.668 80.2802 105.152H82.4833ZM79.2372 110.121C80.9481 110.121 82.2606 110.883 83.1747 112.406C84.0888 113.93 84.5458 116.102 84.5458 118.922C84.5458 121.742 84.0848 123.918 83.163 125.449C82.2489 126.973 80.9247 127.734 79.1903 127.734C77.4559 127.734 76.1356 126.973 75.2294 125.449C74.3231 123.918 73.87 121.73 73.87 118.887C73.87 113.043 75.6591 110.121 79.2372 110.121ZM79.2372 111.785C78.0809 111.785 77.2098 112.391 76.6239 113.602C76.038 114.805 75.745 116.578 75.745 118.922C75.745 121.266 76.038 123.043 76.6239 124.254C77.2098 125.465 78.0692 126.07 79.202 126.07C80.3427 126.07 81.2059 125.473 81.7919 124.277C82.3778 123.074 82.6708 121.285 82.6708 118.91C82.6708 114.16 81.5263 111.785 79.2372 111.785ZM108.265 118.582V126.914C106.914 127.461 105.488 127.734 103.988 127.734C102.082 127.734 100.605 126.965 99.5584 125.426C98.5116 123.879 97.9881 121.715 97.9881 118.934C97.9881 116.152 98.5428 113.988 99.6522 112.441C100.769 110.895 102.344 110.121 104.375 110.121C105.703 110.121 106.953 110.484 108.125 111.211C107.734 112.078 107.5 112.59 107.422 112.746C106.375 112.098 105.383 111.773 104.445 111.773C102.976 111.773 101.848 112.398 101.058 113.648C100.269 114.891 99.8748 116.648 99.8748 118.922C99.8748 121.195 100.242 122.957 100.976 124.207C101.711 125.457 102.742 126.082 104.07 126.082C104.984 126.082 105.781 125.961 106.461 125.719V120.246H104.023V118.582H108.265ZM122.341 110.367H125.282C126.977 110.367 128.223 110.766 129.02 111.563C129.825 112.359 130.227 113.574 130.227 115.207C130.227 116.379 130.02 117.344 129.606 118.102C129.2 118.859 128.552 119.434 127.661 119.824L131.024 127.5H129.032L125.997 120.281H124.157V127.5H122.341V110.367ZM124.157 112.031V118.676H125.505C126.45 118.676 127.165 118.391 127.649 117.82C128.134 117.25 128.376 116.398 128.376 115.266C128.376 114.125 128.13 113.301 127.637 112.793C127.145 112.285 126.36 112.031 125.282 112.031H124.157ZM146.588 110.355H148.803C149.279 112.285 150.689 118 153.033 127.5H151.193L149.857 121.922H145.592L144.279 127.5H142.428C144.724 118.031 146.111 112.316 146.588 110.355ZM148.416 115.688L148.041 114.012C147.892 113.348 147.775 112.68 147.689 112.008C147.564 112.984 147.412 113.867 147.232 114.656C147.06 115.445 146.931 116.031 146.845 116.414C146.76 116.789 146.611 117.422 146.4 118.313C146.189 119.203 146.041 119.836 145.955 120.211H149.482L148.416 115.688ZM172.546 112.02H167.659V118.453H172.264V120.105H167.659V127.5H165.842V110.367H172.546V112.02ZM190.664 110.121C192.375 110.121 193.687 110.883 194.601 112.406C195.515 113.93 195.972 116.102 195.972 118.922C195.972 121.742 195.511 123.918 194.59 125.449C193.675 126.973 192.351 127.734 190.617 127.734C188.883 127.734 187.562 126.973 186.656 125.449C185.75 123.918 185.297 121.73 185.297 118.887C185.297 113.043 187.086 110.121 190.664 110.121ZM190.664 111.785C189.508 111.785 188.636 112.391 188.05 113.602C187.465 114.805 187.172 116.578 187.172 118.922C187.172 121.266 187.465 123.043 188.05 124.254C188.636 125.465 189.496 126.07 190.629 126.07C191.769 126.07 192.633 125.473 193.218 124.277C193.804 123.074 194.097 121.285 194.097 118.91C194.097 114.16 192.953 111.785 190.664 111.785Z" fill="white"/>
<path d="M74.0664 78.9102C74.0091 79.1393 73.9805 79.3685 73.9805 79.5977C74.0091 79.7982 73.9948 79.9414 73.9375 80.0273C73.9089 80.1133 73.8086 80.099 73.6367 79.9844C73.4648 79.8411 73.1641 79.5404 72.7344 79.082L71.6172 78.7383L71.1445 79.2109C71.0586 79.2969 70.9727 79.3685 70.8867 79.4258C70.6576 79.6263 70.4427 79.6549 70.2422 79.5117C70.0703 79.3398 69.8411 79.1393 69.5547 78.9102C69.3255 78.7096 69.1536 78.5807 69.0391 78.5234C68.9531 78.4661 68.8958 78.4661 68.8672 78.5234C68.8672 78.5521 68.8672 78.6523 68.8672 78.8242C68.8958 78.9674 68.8958 79.1393 68.8672 79.3398C68.8672 79.4258 68.7956 79.5833 68.6523 79.8125C68.5091 80.013 68.4375 80.1562 68.4375 80.2422C68.3802 80.5 68.2943 80.5859 68.1797 80.5C68.0651 80.4141 67.9505 80.3854 67.8359 80.4141C67.7786 80.4141 67.6927 80.3854 67.5781 80.3281C67.4922 80.2708 67.3776 80.1849 67.2344 80.0703C67.1198 79.9557 66.9909 79.7695 66.8477 79.5117C66.7331 79.2253 66.6328 78.9961 66.5469 78.8242C66.4609 78.6237 66.375 78.4232 66.2891 78.2227C66.2031 78.0221 66.1029 77.7786 65.9883 77.4922C65.9023 77.2057 65.8021 76.8333 65.6875 76.375C65.6016 75.9167 65.487 75.0716 65.3438 73.8398C65.2005 72.6081 65.043 71.1328 64.8711 69.4141C64.6992 67.6667 64.4987 65.7188 64.2695 63.5703C64.069 61.4219 63.8542 59.1732 63.625 56.8242C63.4245 54.4753 63.2096 52.0977 62.9805 49.6914C62.7513 47.2565 62.5365 44.9076 62.3359 42.6445C62.1354 40.3529 61.9492 38.1901 61.7773 36.1562C61.6055 34.1224 61.4479 32.332 61.3047 30.7852L43.6875 74.6992C43.3438 75.5299 42.9427 76.2891 42.4844 76.9766C42.026 77.6354 41.5534 78.1797 41.0664 78.6094C40.6081 79.0104 40.1497 79.2826 39.6914 79.4258C39.2617 79.569 38.9036 79.5404 38.6172 79.3398C38.1875 79.0534 37.8294 78.7096 37.543 78.3086C37.2852 77.8789 37.056 77.4349 36.8555 76.9766C36.6836 76.4896 36.526 75.9883 36.3828 75.4727C36.2396 74.957 36.0677 74.4271 35.8672 73.8828C35.5807 73.0521 35.2083 71.7201 34.75 69.8867C34.3203 68.0534 33.819 65.9193 33.2461 63.4844C32.6732 61.0208 32.0716 58.3424 31.4414 55.4492C30.8112 52.5273 30.1667 49.5768 29.5078 46.5977C28.849 43.5898 28.2044 40.6536 27.5742 37.7891C26.9727 34.8958 26.3997 32.2318 25.8555 29.7969C25.7122 30.7995 25.4831 32.2604 25.168 34.1797C24.8529 36.0703 24.4805 38.2474 24.0508 40.7109C23.6497 43.1458 23.2057 45.7669 22.7188 48.5742C22.2318 51.3815 21.7448 54.1888 21.2578 56.9961C20.7995 59.8034 20.3411 62.5247 19.8828 65.1602C19.4531 67.7956 19.0521 70.1732 18.6797 72.293C18.3359 74.4128 18.0352 76.1745 17.7773 77.5781C17.5482 78.9531 17.4193 79.8125 17.3906 80.1562C17.3906 80.4141 17.3333 80.6862 17.2188 80.9727C17.1328 81.2018 17.0039 81.4453 16.832 81.7031C16.6888 81.9896 16.4883 82.2617 16.2305 82.5195C16.0013 82.6055 15.7721 82.6914 15.543 82.7773C15.3138 82.8633 15.1133 82.8633 14.9414 82.7773C14.7409 82.6914 14.6263 82.5339 14.5977 82.3047C14.569 82.1042 14.4115 81.918 14.125 81.7461C13.9531 81.6029 13.7669 81.4883 13.5664 81.4023C13.3659 81.3451 13.1797 81.1589 13.0078 80.8438C13.0078 80.6432 12.9792 80.4857 12.9219 80.3711C12.8932 80.3138 12.8646 80.2708 12.8359 80.2422C12.8073 80.2135 12.7643 80.1562 12.707 80.0703C12.6497 79.9844 12.4779 79.7982 12.1914 79.5117C12.0195 79.168 11.8906 78.7956 11.8047 78.3945C11.7474 77.9648 11.7904 77.4349 11.9336 76.8047C11.9909 76.6042 12.1055 76.0885 12.2773 75.2578C12.4492 74.3984 12.6497 73.3672 12.8789 72.1641C13.1367 70.9323 13.4089 69.5859 13.6953 68.125C13.9818 66.6354 14.2682 65.1315 14.5547 63.6133C14.8411 62.0951 15.099 60.6341 15.3281 59.2305C15.5859 57.8268 15.8008 56.5807 15.9727 55.4922C16.1445 54.5469 16.4167 53.2148 16.7891 51.4961C17.1901 49.7487 17.6484 47.8151 18.1641 45.6953C18.6797 43.5755 19.224 41.3555 19.7969 39.0352C20.3984 36.7148 20.9714 34.4805 21.5156 32.332C22.0599 30.1549 22.5469 28.1641 22.9766 26.3594C23.4349 24.526 23.7786 23.0651 24.0078 21.9766C23.9505 21.8333 23.9076 21.6901 23.8789 21.5469C23.8503 21.4036 23.8359 21.2604 23.8359 21.1172C23.7214 20.8307 23.7357 20.6732 23.8789 20.6445C24.0508 20.6159 24.1797 20.5586 24.2656 20.4727C24.2656 20.4154 24.2799 20.3724 24.3086 20.3438C24.3372 20.3151 24.3516 20.2721 24.3516 20.2148C24.3516 20.043 24.3802 19.957 24.4375 19.957C24.4375 19.5846 24.4948 19.3411 24.6094 19.2266C24.724 19.112 24.8385 19.0404 24.9531 19.0117C25.0964 18.9831 25.2253 18.9688 25.3398 18.9688C25.4544 18.9688 25.526 18.8828 25.5547 18.7109C25.612 18.3385 25.6693 18.0951 25.7266 17.9805C25.8125 17.8372 25.8984 17.7799 25.9844 17.8086C26.099 17.8086 26.2422 17.8659 26.4141 17.9805C26.5859 18.0664 26.8008 18.1667 27.0586 18.2812C27.2018 18.3385 27.3164 18.3672 27.4023 18.3672C27.5169 18.3385 27.6315 18.3385 27.7461 18.3672C27.8607 18.3672 27.9896 18.3958 28.1328 18.4531C28.3047 18.5104 28.5052 18.625 28.7344 18.7969C28.9062 18.9401 29.0495 19.0117 29.1641 19.0117C29.3073 19.0117 29.4219 18.9688 29.5078 18.8828C29.6224 18.7969 29.7083 18.6966 29.7656 18.582C29.8516 18.4674 29.9232 18.3672 29.9805 18.2812C30.0664 18.138 30.1953 18.0664 30.3672 18.0664C30.5391 18.0664 30.6966 18.138 30.8398 18.2812C31.0117 18.5104 31.1406 18.668 31.2266 18.7539C31.3411 18.8398 31.4128 18.9115 31.4414 18.9688C31.4987 18.9974 31.5273 19.026 31.5273 19.0547C31.5273 19.0547 31.5417 19.0977 31.5703 19.1836C32 20.4727 32.3724 21.819 32.6875 23.2227C33.0312 24.6263 33.375 26.2305 33.7188 28.0352C34.0911 29.8398 34.5208 31.931 35.0078 34.3086C35.4948 36.6576 36.1107 39.4362 36.8555 42.6445C38.0872 48.0872 39.1615 52.6706 40.0781 56.3945C40.9948 60.0898 41.7682 62.8685 42.3984 64.7305C42.9714 63.4128 43.6589 61.8086 44.4609 59.918C45.2917 58.0273 46.1654 55.9792 47.082 53.7734C47.9987 51.5391 48.9583 49.2331 49.9609 46.8555C50.9635 44.4492 51.9518 42.0716 52.9258 39.7227C53.8997 37.3737 54.8307 35.125 55.7188 32.9766C56.6354 30.8281 57.4375 28.8945 58.125 27.1758C58.8411 25.457 59.4427 24.0104 59.9297 22.8359C60.4167 21.6615 60.7318 20.9023 60.875 20.5586C61.0469 20.1576 61.1758 19.8281 61.2617 19.5703C61.3763 19.3125 61.5052 19.112 61.6484 18.9688C61.7344 18.7396 61.849 18.582 61.9922 18.4961C62.1641 18.3815 62.3503 18.3672 62.5508 18.4531C62.6081 18.5104 62.6797 18.5534 62.7656 18.582C62.8229 18.6393 62.8802 18.6823 62.9375 18.7109C63.0234 18.7109 63.0951 18.7396 63.1523 18.7969C63.181 18.6536 63.2383 18.582 63.3242 18.582C63.4102 18.5534 63.5104 18.5391 63.625 18.5391C63.7396 18.5677 63.8685 18.5964 64.0117 18.625H64.1406H64.3125C64.3984 18.5677 64.4844 18.5247 64.5703 18.4961C64.6562 18.4388 64.7422 18.4531 64.8281 18.5391C65.0859 18.6823 65.2578 18.6966 65.3438 18.582C65.4583 18.4388 65.6302 18.3672 65.8594 18.3672C66.0026 18.3672 66.1315 18.3529 66.2461 18.3242C66.332 18.2956 66.418 18.2669 66.5039 18.2383C66.5898 18.181 66.6471 18.1094 66.6758 18.0234C66.7904 18.0234 66.8763 18.0378 66.9336 18.0664C67.0195 18.0951 67.0911 18.1237 67.1484 18.1523L67.2773 18.2812C67.3633 18.3958 67.4922 18.8971 67.6641 19.7852C67.8359 20.6445 68.0221 21.7188 68.2227 23.0078C68.4518 24.2682 68.6667 25.6432 68.8672 27.1328C69.0964 28.6224 69.2969 30.0404 69.4688 31.3867C69.526 31.8451 69.6406 32.862 69.8125 34.4375C69.9844 35.9844 70.1849 37.8893 70.4141 40.1523C70.6432 42.3867 70.901 44.8789 71.1875 47.6289C71.474 50.3789 71.7604 53.1576 72.0469 55.9648C72.3333 58.7721 72.6055 61.5221 72.8633 64.2148C73.1211 66.8789 73.3359 69.2708 73.5078 71.3906C73.7083 73.5104 73.8516 75.2578 73.9375 76.6328C74.0521 77.9792 74.0951 78.7383 74.0664 78.9102ZM107.367 55.3203C107.396 56.3229 107.31 57.5547 107.109 59.0156C106.909 60.4479 106.68 61.9948 106.422 63.6562C106.164 65.2891 105.921 66.9648 105.691 68.6836C105.462 70.4023 105.348 72.0208 105.348 73.5391C105.348 74.5417 105.419 75.5013 105.562 76.418C105.706 77.306 105.949 78.0794 106.293 78.7383C106.493 79.1107 106.594 79.4401 106.594 79.7266C106.622 80.013 106.608 80.2708 106.551 80.5C106.493 80.7005 106.436 80.8724 106.379 81.0156C106.322 81.1875 106.322 81.3451 106.379 81.4883C106.436 81.6315 106.422 81.7891 106.336 81.9609C106.25 82.1615 106.121 82.3333 105.949 82.4766C105.777 82.6484 105.577 82.763 105.348 82.8203C105.147 82.9062 104.961 82.8919 104.789 82.7773C104.474 82.5768 104.216 82.4622 104.016 82.4336C103.844 82.4049 103.686 82.4049 103.543 82.4336C103.428 82.4909 103.314 82.5482 103.199 82.6055C103.113 82.6628 102.999 82.6628 102.855 82.6055C102.368 82.3477 101.839 82.0469 101.266 81.7031C100.693 81.3594 100.32 80.987 100.148 80.5859C100.034 80.4141 99.9193 80.1276 99.8047 79.7266C99.7188 79.3255 99.6328 78.8529 99.5469 78.3086C99.4896 77.7643 99.4323 77.1771 99.375 76.5469C99.3177 75.9167 99.2747 75.3008 99.2461 74.6992C98.3008 76.4753 97.2839 77.9505 96.1953 79.125C95.1354 80.2995 94.0612 81.2305 92.9727 81.918C91.9128 82.6341 90.8529 83.1354 89.793 83.4219C88.7617 83.7083 87.8164 83.8516 86.957 83.8516C86.069 83.8516 85.2812 83.737 84.5938 83.5078C83.9349 83.2786 83.4193 83.0065 83.0469 82.6914C81.6432 81.2878 80.6406 80.1562 80.0391 79.2969C79.4661 78.4089 79.2083 77.6927 79.2656 77.1484C79.4089 75.3151 79.8529 73.625 80.5977 72.0781C81.3424 70.5312 82.2734 69.1133 83.3906 67.8242C84.5078 66.5065 85.7539 65.332 87.1289 64.3008C88.5326 63.2409 89.9505 62.3099 91.3828 61.5078C92.8438 60.6771 94.276 59.9896 95.6797 59.4453C97.0833 58.8724 98.3581 58.4141 99.5039 58.0703C99.4466 56.5234 99.375 55.1771 99.2891 54.0312C99.2318 52.8568 99.1315 51.9974 98.9883 51.4531C98.5586 49.6771 97.8997 48.3594 97.0117 47.5C96.1237 46.612 95.0495 46.168 93.7891 46.168C92.987 46.168 92.1706 46.4688 91.3398 47.0703C90.5378 47.6719 89.8073 48.4883 89.1484 49.5195C88.4896 50.5508 87.9453 51.7396 87.5156 53.0859C87.1146 54.4323 86.8997 55.8503 86.8711 57.3398C86.8711 57.7122 86.8854 58.0703 86.9141 58.4141C86.9427 58.7578 86.9857 59.1159 87.043 59.4883C87.0716 59.6888 87 59.832 86.8281 59.918C86.6849 60.0039 86.4987 60.0755 86.2695 60.1328C86.0404 60.1615 85.7969 60.1901 85.5391 60.2188C85.2812 60.2474 85.0664 60.2904 84.8945 60.3477C84.7513 60.4049 84.6367 60.4479 84.5508 60.4766C84.4648 60.4766 84.3789 60.4622 84.293 60.4336C84.207 60.3763 84.0924 60.2904 83.9492 60.1758C83.8346 60.0612 83.6628 59.918 83.4336 59.7461C83.2044 59.5742 82.9609 59.431 82.7031 59.3164C82.474 59.2018 82.2591 59.1016 82.0586 59.0156C81.8867 58.9297 81.7292 58.8581 81.5859 58.8008C81.4714 58.7148 81.4141 58.6146 81.4141 58.5C81.4141 56.724 81.8008 54.8906 82.5742 53C83.3763 51.1094 84.4362 49.3906 85.7539 47.8438C87.1003 46.2682 88.6471 44.9792 90.3945 43.9766C92.1706 42.974 94.0469 42.4727 96.0234 42.4727C97.6276 42.4727 99.0169 42.7161 100.191 43.2031C101.366 43.6901 102.368 44.3203 103.199 45.0938C104.03 45.8672 104.703 46.7266 105.219 47.6719C105.763 48.6172 106.178 49.5768 106.465 50.5508C106.78 51.4961 106.995 52.3984 107.109 53.2578C107.253 54.0885 107.339 54.776 107.367 55.3203ZM99.5898 62.9688C98.7305 63.2839 97.7852 63.6992 96.7539 64.2148C95.7227 64.7305 94.6771 65.3464 93.6172 66.0625C92.5573 66.75 91.4974 67.5521 90.4375 68.4688C89.3776 69.3854 88.3893 70.4023 87.4727 71.5195C86.3841 72.8086 85.5964 73.9544 85.1094 74.957C84.6224 75.9596 84.3216 76.819 84.207 77.5352C84.0924 78.2227 84.1211 78.7669 84.293 79.168C84.4648 79.569 84.6654 79.8125 84.8945 79.8984C85.7826 80.2422 86.6992 80.2852 87.6445 80.0273C88.6185 79.7409 89.5781 79.2539 90.5234 78.5664C91.4974 77.8503 92.4284 77.0052 93.3164 76.0312C94.2331 75.0286 95.0924 74.0117 95.8945 72.9805C96.6966 71.9206 97.4128 70.8893 98.043 69.8867C98.6732 68.8555 99.1888 67.9674 99.5898 67.2227V62.9688ZM135.168 49.6055C135.139 50.4362 135.053 51.2669 134.91 52.0977C134.796 52.8997 134.624 53.6732 134.395 54.418C134.165 55.1341 133.879 55.7786 133.535 56.3516C133.22 56.9245 132.862 57.3828 132.461 57.7266C132.117 58.013 131.845 58.1562 131.645 58.1562C131.444 58.1562 131.272 58.099 131.129 57.9844C131.014 57.8698 130.914 57.7409 130.828 57.5977C130.742 57.4544 130.628 57.3685 130.484 57.3398C130.37 57.3112 130.212 57.3255 130.012 57.3828C129.84 57.4115 129.654 57.4115 129.453 57.3828C129.281 57.3542 129.109 57.2539 128.938 57.082C128.794 56.8815 128.694 56.5378 128.637 56.0508C128.579 55.5065 128.594 54.8047 128.68 53.9453C128.794 53.0573 128.852 52.1979 128.852 51.3672C128.852 50.6224 128.766 50.0065 128.594 49.5195C128.451 49.0039 128.178 48.7461 127.777 48.7461C127.577 48.7461 127.219 48.9036 126.703 49.2188C126.216 49.5052 125.672 50.1354 125.07 51.1094C124.469 52.0833 123.867 53.5013 123.266 55.3633C122.664 57.1966 122.177 59.6458 121.805 62.7109C121.805 66.6641 121.833 69.8438 121.891 72.25C121.948 74.6562 121.977 76.5326 121.977 77.8789C121.977 79.0247 121.948 79.8411 121.891 80.3281C121.833 80.8151 121.69 81.1302 121.461 81.2734C121.318 81.3594 121.031 81.4596 120.602 81.5742C120.201 81.7174 119.757 81.8464 119.27 81.9609C118.811 82.0755 118.367 82.1758 117.938 82.2617C117.508 82.3477 117.236 82.3763 117.121 82.3477C117.035 82.319 116.878 82.2188 116.648 82.0469C116.419 81.9036 116.176 81.7174 115.918 81.4883C115.689 81.2591 115.474 81.0156 115.273 80.7578C115.073 80.5286 114.958 80.3281 114.93 80.1562C114.872 79.8698 114.844 79.2253 114.844 78.2227C114.872 77.1914 114.887 75.9596 114.887 74.5273C114.915 73.0951 114.944 71.5339 114.973 69.8438C115.001 68.125 115.016 66.4206 115.016 64.7305C115.016 63.6419 115.044 62.4388 115.102 61.1211C115.188 59.7747 115.273 58.4141 115.359 57.0391C115.474 55.6641 115.589 54.3177 115.703 53C115.818 51.6823 115.918 50.5078 116.004 49.4766C116.118 48.4167 116.204 47.543 116.262 46.8555C116.348 46.1393 116.405 45.7096 116.434 45.5664C116.462 45.3372 116.562 45.2513 116.734 45.3086C116.935 45.3659 117.135 45.4661 117.336 45.6094C117.565 45.7526 117.766 45.8815 117.938 45.9961C118.109 46.1107 118.224 46.1107 118.281 45.9961C118.339 45.7383 118.553 45.7096 118.926 45.9102C119.298 46.082 119.642 46.2826 119.957 46.5117C120.072 46.6549 120.201 46.7839 120.344 46.8984C120.516 46.9844 120.673 47.1133 120.816 47.2852C120.96 47.4284 121.074 47.6289 121.16 47.8867C121.275 48.1445 121.332 48.4883 121.332 48.918C121.332 49.319 121.361 49.9206 121.418 50.7227C121.475 51.5247 121.547 52.4701 121.633 53.5586C121.948 52.5273 122.32 51.4388 122.75 50.293C123.208 49.1471 123.753 48.1016 124.383 47.1562C125.013 46.1823 125.758 45.3802 126.617 44.75C127.477 44.1198 128.508 43.8047 129.711 43.8047C130.37 43.8047 131.029 43.9336 131.688 44.1914C132.346 44.4492 132.934 44.8359 133.449 45.3516C133.993 45.8385 134.423 46.4401 134.738 47.1562C135.053 47.8724 135.197 48.6888 135.168 49.6055ZM198.461 79.2539C198.461 79.4831 198.318 79.612 198.031 79.6406C197.745 79.6406 197.444 79.6406 197.129 79.6406C196.986 79.6693 196.842 79.6979 196.699 79.7266C196.556 79.7839 196.398 79.8411 196.227 79.8984C196.083 79.9271 195.94 80.013 195.797 80.1562C195.854 80.4427 195.868 80.6576 195.84 80.8008C195.84 80.9727 195.84 81.1016 195.84 81.1875L195.797 81.3594C195.711 81.474 195.539 81.5599 195.281 81.6172C195.023 81.7031 194.751 81.7461 194.465 81.7461C194.408 81.7461 194.322 81.7318 194.207 81.7031C194.007 81.6458 193.806 81.5026 193.605 81.2734C193.118 81.1302 192.546 80.987 191.887 80.8438C191.543 80.7578 191.171 80.6719 190.77 80.5859C190.454 80.5 190.182 80.2708 189.953 79.8984C189.724 79.526 189.509 79.0964 189.309 78.6094C189.137 78.0938 188.965 77.5781 188.793 77.0625C188.65 76.5182 188.521 76.0456 188.406 75.6445L184.195 62.3672C183.565 62.3672 182.763 62.3815 181.789 62.4102C180.844 62.4102 179.827 62.4245 178.738 62.4531C177.65 62.4531 176.547 62.4818 175.43 62.5391C174.312 62.5677 173.296 62.5964 172.379 62.625L163.785 63.0547L158.758 76.2031C158.672 76.3464 158.543 76.6328 158.371 77.0625C158.228 77.4922 158.07 77.9505 157.898 78.4375C157.727 78.8958 157.569 79.3398 157.426 79.7695C157.283 80.1706 157.197 80.4141 157.168 80.5C157.111 80.7292 156.939 80.8724 156.652 80.9297C156.366 80.987 156.122 81.0443 155.922 81.1016C155.75 81.1589 155.607 81.3164 155.492 81.5742C155.378 81.832 155.206 82.0039 154.977 82.0898C154.747 82.2331 154.461 82.2474 154.117 82.1328C153.773 82.0182 153.473 81.832 153.215 81.5742C152.986 81.2878 152.9 80.9297 152.957 80.5C153.014 80.0417 153.043 79.569 153.043 79.082C153.043 78.5951 153.029 78.1367 153 77.707C153 77.2773 153.072 76.862 153.215 76.4609C153.272 76.2891 153.444 75.7591 153.73 74.8711C154.046 73.9544 154.432 72.8659 154.891 71.6055C155.349 70.3164 155.85 68.9271 156.395 67.4375C156.939 65.9193 157.497 64.4583 158.07 63.0547C157.555 63.0547 157.197 62.9115 156.996 62.625C156.853 62.3958 156.681 62.2669 156.48 62.2383C156.28 62.181 156.065 62.1094 155.836 62.0234C155.607 61.9661 155.449 61.8372 155.363 61.6367C155.277 61.4362 155.263 61.2643 155.32 61.1211C155.378 60.9492 155.335 60.806 155.191 60.6914C155.048 60.5768 154.977 60.319 154.977 59.918C154.977 59.7461 155.105 59.5885 155.363 59.4453C155.65 59.2734 155.993 59.1302 156.395 59.0156C156.796 58.901 157.24 58.8008 157.727 58.7148C158.242 58.6289 158.729 58.5573 159.188 58.5C159.273 58.5 159.374 58.5 159.488 58.5C159.632 58.5 159.775 58.4714 159.918 58.4141C160.548 56.8958 161.264 55.263 162.066 53.5156C162.868 51.7396 163.685 49.9349 164.516 48.1016C165.375 46.2682 166.234 44.4349 167.094 42.6016C167.953 40.7682 168.77 39.0495 169.543 37.4453C170.316 35.8125 171.018 34.3229 171.648 32.9766C172.307 31.6302 172.852 30.513 173.281 29.625C172.938 28.5651 172.622 27.5911 172.336 26.7031C172.078 25.8151 171.849 25.0417 171.648 24.3828C171.448 23.724 171.29 23.2083 171.176 22.8359C171.061 22.4349 171.004 22.2057 171.004 22.1484C170.975 22.0911 170.975 22.0339 171.004 21.9766C171.061 21.8333 171.204 21.7474 171.434 21.7188C171.204 21.2891 171.09 20.974 171.09 20.7734C171.09 20.6589 171.118 20.5872 171.176 20.5586C171.233 20.5013 171.376 20.444 171.605 20.3867C171.835 20.3294 172.078 20.2865 172.336 20.2578C172.594 20.2005 172.837 20.1719 173.066 20.1719C173.296 20.1432 173.453 20.1289 173.539 20.1289C173.568 20.1289 173.639 20.1432 173.754 20.1719C173.926 20.2292 174.169 20.3581 174.484 20.5586C174.513 20.4154 174.542 20.3151 174.57 20.2578C174.628 20.2005 174.685 20.1432 174.742 20.0859L174.871 19.957C175.043 19.8711 175.229 19.8568 175.43 19.9141C175.63 19.9427 175.816 19.957 175.988 19.957C176.16 19.957 176.275 19.8854 176.332 19.7422C176.418 19.599 176.604 19.5273 176.891 19.5273C177.263 19.5273 177.578 19.9284 177.836 20.7305C177.865 20.8737 178.065 21.418 178.438 22.3633C178.81 23.2799 179.283 24.4974 179.855 26.0156C180.428 27.5052 181.087 29.2383 181.832 31.2148C182.605 33.1914 183.408 35.2969 184.238 37.5312C185.069 39.737 185.9 42.0286 186.73 44.4062C187.59 46.7552 188.406 49.0755 189.18 51.3672C190.784 56.0365 192.13 59.9753 193.219 63.1836C194.307 66.3919 195.181 69.013 195.84 71.0469C196.527 73.0807 197.029 74.599 197.344 75.6016C197.688 76.6042 197.902 77.2057 197.988 77.4062C198.132 77.8646 198.246 78.237 198.332 78.5234C198.418 78.7812 198.461 79.0247 198.461 79.2539ZM179.941 49.8633C179.197 47.7435 178.38 45.3659 177.492 42.7305C176.633 40.0951 175.788 37.4883 174.957 34.9102C174.47 36.1706 173.883 37.6888 173.195 39.4648C172.508 41.2409 171.777 43.0742 171.004 44.9648C170.259 46.8555 169.529 48.7031 168.812 50.5078C168.096 52.3125 167.466 53.8594 166.922 55.1484L165.719 57.9844L173.453 57.5117C174.112 57.5117 174.9 57.4974 175.816 57.4688C177.363 57.4401 179.598 57.3971 182.52 57.3398L179.941 49.8633ZM233.738 47.5C233.652 47.6432 233.566 47.7721 233.48 47.8867C233.423 47.9727 233.337 48.0586 233.223 48.1445C233.108 48.2305 232.965 48.3451 232.793 48.4883C232.621 48.6029 232.406 48.7747 232.148 49.0039C231.661 49.3763 230.845 50.0924 229.699 51.1523C228.553 52.1836 227.221 53.4297 225.703 54.8906C224.185 56.3516 222.552 57.9557 220.805 59.7031C219.086 61.4219 217.396 63.1549 215.734 64.9023C214.073 66.6211 212.526 68.2682 211.094 69.8438C209.661 71.4193 208.487 72.7943 207.57 73.9688C208.716 73.7682 210.034 73.5677 211.523 73.3672C213.042 73.1667 214.603 73.0091 216.207 72.8945C217.811 72.7513 219.401 72.6367 220.977 72.5508C222.581 72.4648 224.042 72.4219 225.359 72.4219C227.107 72.4219 228.453 72.5078 229.398 72.6797C229.885 72.737 230.301 72.9089 230.645 73.1953C231.017 73.4531 231.318 73.7396 231.547 74.0547C231.805 74.3698 231.991 74.6849 232.105 75C232.249 75.3151 232.32 75.5586 232.32 75.7305C232.32 75.9883 232.335 76.2318 232.363 76.4609C232.392 76.6901 232.378 76.9049 232.32 77.1055C232.292 77.306 232.191 77.4922 232.02 77.6641C231.848 77.8359 231.561 77.9648 231.16 78.0508C230.931 78.1081 230.659 78.1081 230.344 78.0508C230.057 77.9935 229.771 77.9362 229.484 77.8789C229.198 77.8216 228.926 77.7786 228.668 77.75C228.439 77.7214 228.281 77.7643 228.195 77.8789C227.88 78.2799 227.809 78.6237 227.98 78.9102C228.181 79.1966 228.482 79.526 228.883 79.8984C229.083 80.0417 229.141 80.2135 229.055 80.4141C228.969 80.5859 228.768 80.7292 228.453 80.8438C228.167 80.9583 227.766 81.0156 227.25 81.0156C226.763 81.0156 226.219 80.9297 225.617 80.7578C225.359 80.6719 224.915 80.6003 224.285 80.543C223.684 80.4857 222.953 80.4427 222.094 80.4141C221.263 80.3568 220.318 80.3138 219.258 80.2852C218.227 80.2565 217.152 80.2422 216.035 80.2422C214.603 80.2422 213.142 80.2708 211.652 80.3281C210.191 80.3568 208.816 80.4141 207.527 80.5C206.238 80.5859 205.092 80.7005 204.09 80.8438C203.087 80.987 202.342 81.1589 201.855 81.3594C201.283 81.6458 200.839 81.7604 200.523 81.7031C200.237 81.6745 199.922 81.5026 199.578 81.1875C199.435 81.0156 199.292 80.8294 199.148 80.6289C198.977 80.457 198.862 80.2852 198.805 80.1133C198.719 79.9414 198.719 79.7839 198.805 79.6406C198.862 79.4688 199.034 79.3398 199.32 79.2539C199.578 79.1966 199.721 79.0964 199.75 78.9531C199.75 78.7812 199.707 78.6094 199.621 78.4375C199.535 78.2656 199.435 78.0938 199.32 77.9219C199.206 77.7214 199.148 77.5495 199.148 77.4062C199.177 77.1484 199.578 76.5469 200.352 75.6016C201.154 74.6276 202.199 73.4388 203.488 72.0352C204.806 70.6029 206.31 69.013 208 67.2656C209.719 65.4896 211.495 63.6706 213.328 61.8086C215.19 59.9466 217.052 58.0846 218.914 56.2227C220.776 54.3607 222.538 52.6276 224.199 51.0234C223.368 50.9375 222.38 50.8802 221.234 50.8516C220.117 50.7943 218.943 50.7656 217.711 50.7656C216.594 50.7656 215.491 50.7799 214.402 50.8086C213.314 50.8372 212.283 50.8802 211.309 50.9375C210.363 50.9661 209.518 51.0091 208.773 51.0664C208.057 51.1237 207.513 51.1667 207.141 51.1953C206.74 51.2526 206.453 51.2669 206.281 51.2383C206.109 51.181 205.995 51.1094 205.938 51.0234C205.88 50.9089 205.837 50.7943 205.809 50.6797C205.809 50.5365 205.78 50.4219 205.723 50.3359C205.637 50.25 205.522 50.1641 205.379 50.0781C205.264 49.9922 205.164 49.8919 205.078 49.7773C204.992 49.6628 204.935 49.5482 204.906 49.4336C204.878 49.2904 204.921 49.1471 205.035 49.0039C205.15 48.8893 205.164 48.7891 205.078 48.7031C205.021 48.6172 204.935 48.5456 204.82 48.4883C204.706 48.4023 204.591 48.3021 204.477 48.1875C204.362 48.0729 204.305 47.9297 204.305 47.7578C204.305 47.4427 204.305 47.1419 204.305 46.8555C204.333 46.569 204.462 46.3971 204.691 46.3398C204.921 46.2826 205.049 46.1393 205.078 45.9102C205.107 45.681 205.322 45.4518 205.723 45.2227C206.095 44.9935 206.668 44.8073 207.441 44.6641C208.215 44.5208 209.117 44.4206 210.148 44.3633C211.208 44.2773 212.368 44.2201 213.629 44.1914C214.889 44.1628 216.193 44.1484 217.539 44.1484C218.885 44.1484 220.232 44.1628 221.578 44.1914C222.953 44.1914 224.257 44.2057 225.488 44.2344C226.749 44.263 227.909 44.2917 228.969 44.3203C230.057 44.3203 230.988 44.3203 231.762 44.3203C232.02 44.3203 232.292 44.4349 232.578 44.6641C232.865 44.8932 233.122 45.1654 233.352 45.4805C233.581 45.7956 233.738 46.1393 233.824 46.5117C233.91 46.8841 233.882 47.2135 233.738 47.5ZM263.516 80.2422C263.516 80.5 263.301 80.8151 262.871 81.1875C262.441 81.5599 261.897 81.7461 261.238 81.7461C261.038 81.7461 260.665 81.6458 260.121 81.4453C259.605 81.2448 259.061 80.944 258.488 80.543C257.915 80.1706 257.4 79.7122 256.941 79.168C256.483 78.5951 256.24 77.9505 256.211 77.2344C256.154 76.9193 256.125 76.4896 256.125 75.9453C256.125 75.3724 256.125 74.7135 256.125 73.9688C256.125 72.8229 256.125 71.5482 256.125 70.1445C256.125 68.7409 256.154 67.3229 256.211 65.8906C256.01 66.9219 255.767 67.9961 255.48 69.1133C255.194 70.2018 254.836 71.2904 254.406 72.3789C253.977 73.4674 253.475 74.5417 252.902 75.6016C252.329 76.6615 251.671 77.6784 250.926 78.6523C250.525 79.168 250.095 79.612 249.637 79.9844C249.207 80.3281 248.777 80.6146 248.348 80.8438C247.918 81.1016 247.517 81.2878 247.145 81.4023C246.772 81.5169 246.486 81.5742 246.285 81.5742C246.171 81.5742 245.898 81.4453 245.469 81.1875C245.068 80.9583 244.581 80.6576 244.008 80.2852C243.464 79.8841 242.876 79.4544 242.246 78.9961C241.616 78.5091 241.014 78.0365 240.441 77.5781C239.868 77.0911 239.353 76.6471 238.895 76.2461C238.436 75.8164 238.107 75.4727 237.906 75.2148C237.706 74.9284 237.52 74.4414 237.348 73.7539C237.204 73.0664 237.076 72.2214 236.961 71.2188C236.846 70.2161 236.746 69.0846 236.66 67.8242C236.603 66.5638 236.574 65.2174 236.574 63.7852C236.574 63.0117 236.589 62.0091 236.617 60.7773C236.646 59.5456 236.703 58.2279 236.789 56.8242C236.875 55.3919 236.975 53.9596 237.09 52.5273C237.233 51.0664 237.391 49.763 237.562 48.6172C237.763 47.4427 237.992 46.4974 238.25 45.7812C238.508 45.0365 238.809 44.6641 239.152 44.6641C239.382 44.6641 239.783 44.7357 240.355 44.8789C240.928 44.9935 241.516 45.0508 242.117 45.0508C243.005 45.0508 243.621 44.9792 243.965 44.8359C244.337 44.6641 244.609 44.5781 244.781 44.5781C245.068 44.5781 245.211 44.8216 245.211 45.3086C245.211 45.4518 245.211 45.5951 245.211 45.7383C245.211 45.8529 245.182 45.9961 245.125 46.168C245.096 46.3398 245.025 46.7839 244.91 47.5C244.824 48.2161 244.71 49.1328 244.566 50.25C244.423 51.3672 244.28 52.6276 244.137 54.0312C243.993 55.4062 243.85 56.8529 243.707 58.3711C243.592 59.8893 243.492 61.4219 243.406 62.9688C243.32 64.5156 243.277 65.9909 243.277 67.3945C243.277 68.3398 243.292 69.2852 243.32 70.2305C243.378 71.1758 243.464 72.0352 243.578 72.8086C243.693 73.582 243.85 74.2122 244.051 74.6992C244.251 75.1576 244.495 75.3867 244.781 75.3867C245.039 75.3867 245.397 75.2721 245.855 75.043C246.342 74.7852 246.901 74.2839 247.531 73.5391C248.19 72.7943 248.906 71.7344 249.68 70.3594C250.453 68.9844 251.284 67.1654 252.172 64.9023C253.089 62.6107 254.034 59.8177 255.008 56.5234C256.01 53.2005 257.027 49.2474 258.059 44.6641C258.059 44.5781 258.102 44.5208 258.188 44.4922C258.302 44.4349 258.431 44.4062 258.574 44.4062C258.947 44.4062 259.419 44.4492 259.992 44.5352C260.565 44.5924 261.109 44.6927 261.625 44.8359C262.169 44.9505 262.628 45.0938 263 45.2656C263.401 45.4375 263.602 45.6237 263.602 45.8242C263.602 47.1133 263.544 48.5169 263.43 50.0352C263.315 51.5534 263.186 53.1289 263.043 54.7617C262.9 56.3659 262.771 58.013 262.656 59.7031C262.542 61.3932 262.484 63.069 262.484 64.7305C262.484 67.7096 262.57 70.5599 262.742 73.2812C262.943 75.974 263.201 78.2943 263.516 80.2422ZM279.586 23.1367C279.586 23.5378 279.557 24.3255 279.5 25.5C279.443 26.6745 279.371 28.0924 279.285 29.7539C279.199 31.3867 279.099 33.1914 278.984 35.168C278.898 37.1159 278.798 39.0781 278.684 41.0547C278.569 43.0026 278.469 44.8932 278.383 46.7266C278.297 48.5599 278.24 50.1641 278.211 51.5391C278.154 52.3698 278.111 53.2865 278.082 54.2891C278.082 55.2917 278.082 56.3659 278.082 57.5117C278.082 59.0299 278.082 60.6198 278.082 62.2812C278.111 63.9141 278.139 65.5326 278.168 67.1367C278.197 68.7409 278.225 70.2878 278.254 71.7773C278.311 73.2383 278.354 74.556 278.383 75.7305C278.411 76.9049 278.426 77.8932 278.426 78.6953C278.454 79.4688 278.469 79.9557 278.469 80.1562C278.469 80.5573 278.397 80.8581 278.254 81.0586C278.139 81.2878 277.982 81.431 277.781 81.4883C277.609 81.5742 277.423 81.5885 277.223 81.5312C277.022 81.5026 276.85 81.4453 276.707 81.3594C276.535 81.2734 276.392 81.1732 276.277 81.0586C276.191 80.944 276.12 80.8581 276.062 80.8008C276.005 80.7435 275.948 80.7292 275.891 80.7578C275.862 80.7865 275.833 80.901 275.805 81.1016C275.719 81.8464 275.547 82.4049 275.289 82.7773C275.06 83.1497 274.802 83.3932 274.516 83.5078C274.258 83.651 274.014 83.694 273.785 83.6367C273.556 83.5794 273.413 83.4792 273.355 83.3359C273.298 83.1927 273.198 83.1068 273.055 83.0781C272.94 83.0495 272.811 83.0208 272.668 82.9922C272.525 82.9922 272.382 82.9492 272.238 82.8633C272.124 82.806 272.052 82.6628 272.023 82.4336C271.794 81.4596 271.651 80.2279 271.594 78.7383C271.536 77.2201 271.508 75.5156 271.508 73.625C271.508 71.9922 271.522 70.2305 271.551 68.3398C271.579 66.4492 271.594 64.5156 271.594 62.5391C271.594 61.3932 271.594 60.2617 271.594 59.1445C271.594 57.9987 271.565 56.8385 271.508 55.6641V52.957C271.508 50.6367 271.565 48.3164 271.68 45.9961C271.794 43.6471 271.938 41.3984 272.109 39.25C272.281 37.1016 272.467 35.082 272.668 33.1914C272.868 31.3008 273.04 29.625 273.184 28.1641C273.327 26.7031 273.441 25.5143 273.527 24.5977C273.613 23.681 273.642 23.1081 273.613 22.8789C273.585 22.6784 273.599 22.5352 273.656 22.4492C273.742 22.3633 273.842 22.3203 273.957 22.3203C274.1 22.2917 274.243 22.2773 274.387 22.2773C274.53 22.2487 274.659 22.2057 274.773 22.1484C274.974 22.0339 275.132 22.0052 275.246 22.0625C275.389 22.0911 275.504 22.1484 275.59 22.2344C275.676 22.3203 275.747 22.4206 275.805 22.5352C275.891 22.6211 276.005 22.6641 276.148 22.6641C276.32 22.6354 276.449 22.5924 276.535 22.5352C276.65 22.4492 276.736 22.3776 276.793 22.3203C276.879 22.2344 276.951 22.1628 277.008 22.1055C277.094 22.0482 277.194 22.0339 277.309 22.0625C277.538 22.1198 277.753 22.1628 277.953 22.1914C278.182 22.1914 278.297 22.1484 278.297 22.0625C278.354 21.8333 278.44 21.7331 278.555 21.7617C278.669 21.7617 278.812 21.8333 278.984 21.9766C279.156 22.1198 279.299 22.2773 279.414 22.4492C279.529 22.5924 279.586 22.8216 279.586 23.1367ZM346.102 79.2539C346.102 79.4831 345.958 79.612 345.672 79.6406C345.385 79.6406 345.085 79.6406 344.77 79.6406C344.626 79.6693 344.483 79.6979 344.34 79.7266C344.197 79.7839 344.039 79.8411 343.867 79.8984C343.724 79.9271 343.581 80.013 343.438 80.1562C343.495 80.4427 343.509 80.6576 343.48 80.8008C343.48 80.9727 343.48 81.1016 343.48 81.1875L343.438 81.3594C343.352 81.474 343.18 81.5599 342.922 81.6172C342.664 81.7031 342.392 81.7461 342.105 81.7461C342.048 81.7461 341.962 81.7318 341.848 81.7031C341.647 81.6458 341.447 81.5026 341.246 81.2734C340.759 81.1302 340.186 80.987 339.527 80.8438C339.184 80.7578 338.811 80.6719 338.41 80.5859C338.095 80.5 337.823 80.2708 337.594 79.8984C337.365 79.526 337.15 79.0964 336.949 78.6094C336.777 78.0938 336.605 77.5781 336.434 77.0625C336.29 76.5182 336.161 76.0456 336.047 75.6445L331.836 62.3672C331.206 62.3672 330.404 62.3815 329.43 62.4102C328.484 62.4102 327.467 62.4245 326.379 62.4531C325.29 62.4531 324.188 62.4818 323.07 62.5391C321.953 62.5677 320.936 62.5964 320.02 62.625L311.426 63.0547L306.398 76.2031C306.312 76.3464 306.184 76.6328 306.012 77.0625C305.868 77.4922 305.711 77.9505 305.539 78.4375C305.367 78.8958 305.21 79.3398 305.066 79.7695C304.923 80.1706 304.837 80.4141 304.809 80.5C304.751 80.7292 304.579 80.8724 304.293 80.9297C304.007 80.987 303.763 81.0443 303.562 81.1016C303.391 81.1589 303.247 81.3164 303.133 81.5742C303.018 81.832 302.846 82.0039 302.617 82.0898C302.388 82.2331 302.102 82.2474 301.758 82.1328C301.414 82.0182 301.113 81.832 300.855 81.5742C300.626 81.2878 300.54 80.9297 300.598 80.5C300.655 80.0417 300.684 79.569 300.684 79.082C300.684 78.5951 300.669 78.1367 300.641 77.707C300.641 77.2773 300.712 76.862 300.855 76.4609C300.913 76.2891 301.085 75.7591 301.371 74.8711C301.686 73.9544 302.073 72.8659 302.531 71.6055C302.99 70.3164 303.491 68.9271 304.035 67.4375C304.579 65.9193 305.138 64.4583 305.711 63.0547C305.195 63.0547 304.837 62.9115 304.637 62.625C304.493 62.3958 304.322 62.2669 304.121 62.2383C303.921 62.181 303.706 62.1094 303.477 62.0234C303.247 61.9661 303.09 61.8372 303.004 61.6367C302.918 61.4362 302.904 61.2643 302.961 61.1211C303.018 60.9492 302.975 60.806 302.832 60.6914C302.689 60.5768 302.617 60.319 302.617 59.918C302.617 59.7461 302.746 59.5885 303.004 59.4453C303.29 59.2734 303.634 59.1302 304.035 59.0156C304.436 58.901 304.88 58.8008 305.367 58.7148C305.883 58.6289 306.37 58.5573 306.828 58.5C306.914 58.5 307.014 58.5 307.129 58.5C307.272 58.5 307.415 58.4714 307.559 58.4141C308.189 56.8958 308.905 55.263 309.707 53.5156C310.509 51.7396 311.326 49.9349 312.156 48.1016C313.016 46.2682 313.875 44.4349 314.734 42.6016C315.594 40.7682 316.41 39.0495 317.184 37.4453C317.957 35.8125 318.659 34.3229 319.289 32.9766C319.948 31.6302 320.492 30.513 320.922 29.625C320.578 28.5651 320.263 27.5911 319.977 26.7031C319.719 25.8151 319.49 25.0417 319.289 24.3828C319.089 23.724 318.931 23.2083 318.816 22.8359C318.702 22.4349 318.645 22.2057 318.645 22.1484C318.616 22.0911 318.616 22.0339 318.645 21.9766C318.702 21.8333 318.845 21.7474 319.074 21.7188C318.845 21.2891 318.73 20.974 318.73 20.7734C318.73 20.6589 318.759 20.5872 318.816 20.5586C318.874 20.5013 319.017 20.444 319.246 20.3867C319.475 20.3294 319.719 20.2865 319.977 20.2578C320.234 20.2005 320.478 20.1719 320.707 20.1719C320.936 20.1432 321.094 20.1289 321.18 20.1289C321.208 20.1289 321.28 20.1432 321.395 20.1719C321.566 20.2292 321.81 20.3581 322.125 20.5586C322.154 20.4154 322.182 20.3151 322.211 20.2578C322.268 20.2005 322.326 20.1432 322.383 20.0859L322.512 19.957C322.684 19.8711 322.87 19.8568 323.07 19.9141C323.271 19.9427 323.457 19.957 323.629 19.957C323.801 19.957 323.915 19.8854 323.973 19.7422C324.059 19.599 324.245 19.5273 324.531 19.5273C324.904 19.5273 325.219 19.9284 325.477 20.7305C325.505 20.8737 325.706 21.418 326.078 22.3633C326.451 23.2799 326.923 24.4974 327.496 26.0156C328.069 27.5052 328.728 29.2383 329.473 31.2148C330.246 33.1914 331.048 35.2969 331.879 37.5312C332.71 39.737 333.54 42.0286 334.371 44.4062C335.23 46.7552 336.047 49.0755 336.82 51.3672C338.424 56.0365 339.771 59.9753 340.859 63.1836C341.948 66.3919 342.822 69.013 343.48 71.0469C344.168 73.0807 344.669 74.599 344.984 75.6016C345.328 76.6042 345.543 77.2057 345.629 77.4062C345.772 77.8646 345.887 78.237 345.973 78.5234C346.059 78.7812 346.102 79.0247 346.102 79.2539ZM327.582 49.8633C326.837 47.7435 326.021 45.3659 325.133 42.7305C324.273 40.0951 323.428 37.4883 322.598 34.9102C322.111 36.1706 321.523 37.6888 320.836 39.4648C320.148 41.2409 319.418 43.0742 318.645 44.9648C317.9 46.8555 317.169 48.7031 316.453 50.5078C315.737 52.3125 315.107 53.8594 314.562 55.1484L313.359 57.9844L321.094 57.5117C321.753 57.5117 322.54 57.4974 323.457 57.4688C325.004 57.4401 327.238 57.3971 330.16 57.3398L327.582 49.8633ZM371.238 49.6055C371.21 50.4362 371.124 51.2669 370.98 52.0977C370.866 52.8997 370.694 53.6732 370.465 54.418C370.236 55.1341 369.949 55.7786 369.605 56.3516C369.29 56.9245 368.932 57.3828 368.531 57.7266C368.188 58.013 367.915 58.1562 367.715 58.1562C367.514 58.1562 367.342 58.099 367.199 57.9844C367.085 57.8698 366.984 57.7409 366.898 57.5977C366.812 57.4544 366.698 57.3685 366.555 57.3398C366.44 57.3112 366.283 57.3255 366.082 57.3828C365.91 57.4115 365.724 57.4115 365.523 57.3828C365.352 57.3542 365.18 57.2539 365.008 57.082C364.865 56.8815 364.764 56.5378 364.707 56.0508C364.65 55.5065 364.664 54.8047 364.75 53.9453C364.865 53.0573 364.922 52.1979 364.922 51.3672C364.922 50.6224 364.836 50.0065 364.664 49.5195C364.521 49.0039 364.249 48.7461 363.848 48.7461C363.647 48.7461 363.289 48.9036 362.773 49.2188C362.286 49.5052 361.742 50.1354 361.141 51.1094C360.539 52.0833 359.938 53.5013 359.336 55.3633C358.734 57.1966 358.247 59.6458 357.875 62.7109C357.875 66.6641 357.904 69.8438 357.961 72.25C358.018 74.6562 358.047 76.5326 358.047 77.8789C358.047 79.0247 358.018 79.8411 357.961 80.3281C357.904 80.8151 357.76 81.1302 357.531 81.2734C357.388 81.3594 357.102 81.4596 356.672 81.5742C356.271 81.7174 355.827 81.8464 355.34 81.9609C354.882 82.0755 354.438 82.1758 354.008 82.2617C353.578 82.3477 353.306 82.3763 353.191 82.3477C353.105 82.319 352.948 82.2188 352.719 82.0469C352.49 81.9036 352.246 81.7174 351.988 81.4883C351.759 81.2591 351.544 81.0156 351.344 80.7578C351.143 80.5286 351.029 80.3281 351 80.1562C350.943 79.8698 350.914 79.2253 350.914 78.2227C350.943 77.1914 350.957 75.9596 350.957 74.5273C350.986 73.0951 351.014 71.5339 351.043 69.8438C351.072 68.125 351.086 66.4206 351.086 64.7305C351.086 63.6419 351.115 62.4388 351.172 61.1211C351.258 59.7747 351.344 58.4141 351.43 57.0391C351.544 55.6641 351.659 54.3177 351.773 53C351.888 51.6823 351.988 50.5078 352.074 49.4766C352.189 48.4167 352.275 47.543 352.332 46.8555C352.418 46.1393 352.475 45.7096 352.504 45.5664C352.533 45.3372 352.633 45.2513 352.805 45.3086C353.005 45.3659 353.206 45.4661 353.406 45.6094C353.635 45.7526 353.836 45.8815 354.008 45.9961C354.18 46.1107 354.294 46.1107 354.352 45.9961C354.409 45.7383 354.624 45.7096 354.996 45.9102C355.368 46.082 355.712 46.2826 356.027 46.5117C356.142 46.6549 356.271 46.7839 356.414 46.8984C356.586 46.9844 356.743 47.1133 356.887 47.2852C357.03 47.4284 357.145 47.6289 357.23 47.8867C357.345 48.1445 357.402 48.4883 357.402 48.918C357.402 49.319 357.431 49.9206 357.488 50.7227C357.546 51.5247 357.617 52.4701 357.703 53.5586C358.018 52.5273 358.391 51.4388 358.82 50.293C359.279 49.1471 359.823 48.1016 360.453 47.1562C361.083 46.1823 361.828 45.3802 362.688 44.75C363.547 44.1198 364.578 43.8047 365.781 43.8047C366.44 43.8047 367.099 43.9336 367.758 44.1914C368.417 44.4492 369.004 44.8359 369.52 45.3516C370.064 45.8385 370.493 46.4401 370.809 47.1562C371.124 47.8724 371.267 48.6888 371.238 49.6055ZM386.32 29.9688C386.32 30.1406 386.292 30.599 386.234 31.3438C386.177 32.0599 386.091 33.0195 385.977 34.2227C385.891 35.4258 385.776 36.8294 385.633 38.4336C385.49 40.0091 385.346 41.7135 385.203 43.5469C387.008 43.3177 388.712 43.1458 390.316 43.0312C391.949 42.888 393.324 42.8164 394.441 42.8164C394.814 42.8164 395.143 42.888 395.43 43.0312C395.716 43.1745 395.945 43.3464 396.117 43.5469C396.318 43.7188 396.475 43.9193 396.59 44.1484C396.704 44.349 396.776 44.5208 396.805 44.6641C396.805 44.8073 396.819 44.9505 396.848 45.0938C396.876 45.2083 396.891 45.3372 396.891 45.4805C396.891 46.0534 396.633 46.6263 396.117 47.1992C395.63 47.7721 394.885 48.1302 393.883 48.2734L384.73 49.2617C384.587 51.3242 384.458 53.444 384.344 55.6211C384.229 57.7982 384.115 59.9753 384 62.1523C383.914 64.3008 383.842 66.4206 383.785 68.5117C383.728 70.6029 383.699 72.5794 383.699 74.4414C383.699 75.6445 383.728 76.6185 383.785 77.3633C383.842 78.1081 383.871 78.5951 383.871 78.8242C383.871 79.3112 383.771 79.7982 383.57 80.2852C383.398 80.7435 383.184 81.1589 382.926 81.5312C382.697 81.9323 382.439 82.2474 382.152 82.4766C381.895 82.7344 381.68 82.8633 381.508 82.8633C380.477 82.8633 379.66 82.5339 379.059 81.875C378.457 81.2448 377.999 80.3854 377.684 79.2969C377.397 78.2083 377.211 76.9622 377.125 75.5586C377.039 74.1549 376.996 72.694 376.996 71.1758C376.996 67.5951 377.096 64.0143 377.297 60.4336C377.497 56.8242 377.784 53.3581 378.156 50.0352L372.785 50.6797C372.699 50.6797 372.613 50.694 372.527 50.7227C372.441 50.7513 372.341 50.7656 372.227 50.7656C371.682 50.7656 371.253 50.6367 370.938 50.3789C370.594 50.1211 370.336 49.8203 370.164 49.4766C369.992 49.1328 369.892 48.7891 369.863 48.4453C369.806 48.0729 369.777 47.7865 369.777 47.5859C369.777 47.1849 369.835 46.8125 369.949 46.4688C370.064 46.125 370.279 45.9102 370.594 45.8242C371.195 45.5951 372.241 45.3516 373.73 45.0938C375.249 44.8073 376.953 44.5208 378.844 44.2344C379.159 41.9141 379.474 39.7943 379.789 37.875C380.133 35.9271 380.462 34.2513 380.777 32.8477C381.092 31.4154 381.379 30.3125 381.637 29.5391C381.923 28.737 382.167 28.3359 382.367 28.3359C382.424 28.3359 382.496 28.3503 382.582 28.3789C382.668 28.4076 382.74 28.4219 382.797 28.4219C382.969 28.4219 383.098 28.3359 383.184 28.1641C383.298 27.9635 383.499 27.8633 383.785 27.8633C384.043 27.8633 384.315 27.9492 384.602 28.1211C384.917 28.2643 385.189 28.4505 385.418 28.6797C385.676 28.9089 385.891 29.1523 386.062 29.4102C386.234 29.6393 386.32 29.8255 386.32 29.9688ZM422.414 46.7266C422.5 46.8984 422.543 47.0703 422.543 47.2422C422.572 47.4141 422.586 47.6146 422.586 47.8438C422.586 48.7604 422.099 49.7201 421.125 50.7227C420.18 51.7253 418.676 52.6419 416.613 53.4727C416.184 53.6445 415.797 53.7305 415.453 53.7305C415.023 53.7305 414.651 53.6159 414.336 53.3867C414.049 53.1289 413.906 52.8711 413.906 52.6133C413.906 52.4414 414.007 52.2409 414.207 52.0117C414.436 51.7826 414.665 51.5534 414.895 51.3242C415.152 51.0951 415.382 50.8802 415.582 50.6797C415.811 50.4792 415.926 50.3216 415.926 50.207C415.926 49.9779 415.74 49.8633 415.367 49.8633C414.794 49.8633 414.064 50.0352 413.176 50.3789C412.288 50.694 411.342 51.1237 410.34 51.668C409.366 52.1836 408.363 52.7565 407.332 53.3867C406.329 53.9883 405.427 54.5898 404.625 55.1914C403.823 55.7643 403.164 56.2799 402.648 56.7383C402.161 57.1966 401.918 57.526 401.918 57.7266C401.918 57.8411 402.033 57.8984 402.262 57.8984H403.508C404.281 57.8984 405.27 57.9414 406.473 58.0273C407.704 58.1133 408.993 58.2852 410.34 58.543C411.686 58.7721 413.033 59.1159 414.379 59.5742C415.754 60.0039 416.971 60.5911 418.031 61.3359C419.12 62.0807 420.008 62.9831 420.695 64.043C421.383 65.1029 421.727 66.3633 421.727 67.8242C421.727 68.569 421.598 69.3711 421.34 70.2305C421.111 71.0612 420.681 71.9206 420.051 72.8086C419.449 73.668 418.618 74.556 417.559 75.4727C416.499 76.3607 415.152 77.2487 413.52 78.1367C411.056 79.4544 408.75 80.4284 406.602 81.0586C404.482 81.6888 402.562 82.0039 400.844 82.0039C398.609 82.0039 396.848 81.5026 395.559 80.5C394.27 79.4974 393.625 78.0651 393.625 76.2031C393.625 74.8281 393.883 73.6536 394.398 72.6797C394.943 71.7057 395.573 70.9036 396.289 70.2734C397.005 69.6146 397.721 69.1419 398.438 68.8555C399.154 68.5404 399.698 68.3685 400.07 68.3398C400.242 68.3398 400.385 68.3255 400.5 68.2969C400.643 68.2682 400.786 68.2539 400.93 68.2539C401.188 68.2539 401.316 68.4115 401.316 68.7266V69.1562C401.316 69.3281 401.359 69.4857 401.445 69.6289C401.531 69.7435 401.574 69.8724 401.574 70.0156C401.574 70.1875 401.359 70.4453 400.93 70.7891C400.529 71.1328 400.085 71.5339 399.598 71.9922C399.111 72.4505 398.652 72.9375 398.223 73.4531C397.822 73.9688 397.621 74.4701 397.621 74.957C397.621 75.5299 398.079 75.8164 398.996 75.8164C400.142 75.8164 401.345 75.6016 402.605 75.1719C403.895 74.7135 405.141 74.1406 406.344 73.4531C407.576 72.7656 408.736 71.9922 409.824 71.1328C410.941 70.2448 411.915 69.3854 412.746 68.5547C413.577 67.724 414.236 66.9505 414.723 66.2344C415.21 65.4896 415.453 64.9023 415.453 64.4727C415.453 63.957 415.152 63.5417 414.551 63.2266C413.978 62.9115 413.176 62.6536 412.145 62.4531C411.142 62.2526 409.967 62.1237 408.621 62.0664C407.275 61.9805 405.857 61.9375 404.367 61.9375C402.82 61.9375 401.531 62.0091 400.5 62.1523C399.497 62.2956 398.882 62.3672 398.652 62.3672C398.48 62.3672 398.194 62.3529 397.793 62.3242C397.421 62.2669 397.034 62.138 396.633 61.9375C396.26 61.7083 395.931 61.3789 395.645 60.9492C395.358 60.5195 395.215 59.9036 395.215 59.1016C395.215 58.5573 395.329 57.9414 395.559 57.2539C395.816 56.5664 396.246 55.8359 396.848 55.0625C397.478 54.2604 398.323 53.401 399.383 52.4844C400.471 51.5677 401.846 50.6081 403.508 49.6055C405.255 48.5456 406.888 47.6862 408.406 47.0273C409.953 46.3398 411.342 45.8099 412.574 45.4375C413.835 45.0651 414.938 44.8216 415.883 44.707C416.828 44.5638 417.573 44.4922 418.117 44.4922C419.406 44.4922 420.366 44.6641 420.996 45.0078C421.626 45.3229 422.099 45.8958 422.414 46.7266Z" fill="white"/>
</svg>
